<svg xmlns="http://www.w3.org/2000/svg" viewBox="0 0 224.39 221.33"><defs><style>.a{fill:#6b2a40;}.b{fill:#623f52;}.c{fill:#52719b;}.d{fill:#ceab2c;}.e{fill:#f594a3;}.f{fill:#b9842c;}.g{fill:#8c5e7d;}.h{fill:#9fb36a;stroke:#b8842c;stroke-linecap:round;stroke-linejoin:round;stroke-width:0.71px;}</style></defs><title>Logoen</title><path class="a" d="M18.65,167.81A31.48,31.48,0,0,0,58,147q.33-1.09.59-2.19a31.48,31.48,0,0,0-39.33,20.86q-.33,1.09-.59,2.19" transform="translate(-2.29 -1.81)"/><path class="b" d="M114.49,223.14a31.48,31.48,0,0,0,1.6-44.49q-.77-.83-1.6-1.6a31.48,31.48,0,0,0-1.6,44.49q.77.83,1.6,1.6" transform="translate(-2.29 -1.81)"/><path class="c" d="M18.65,57.14q1.09-.33,2.19-.59A31.48,31.48,0,0,1,58.57,80.19q-1.09.33-2.19.59A31.48,31.48,0,0,1,18.65,57.14" transform="translate(-2.29 -1.81)"/><path class="d" d="M210.32,167.81q-1.09.33-2.19.59a31.48,31.48,0,0,1-37.73-23.63q1.09-.33,2.19-.59a31.48,31.48,0,0,1,37.73,23.63" transform="translate(-2.29 -1.81)"/><path class="e" d="M210.32,57.14A31.48,31.48,0,0,0,171,78q-.33,1.09-.59,2.19a31.48,31.48,0,0,0,39.33-20.86q.33-1.09.59-2.19" transform="translate(-2.29 -1.81)"/><path class="f" d="M114.49,177a64.57,64.57,0,0,1-55.92-32.29A64.57,64.57,0,0,1,114.49,177" transform="translate(-2.29 -1.81)"/><path class="f" d="M170.4,80.19A64.57,64.57,0,0,1,114.49,47.9,64.57,64.57,0,0,1,170.4,80.19" transform="translate(-2.29 -1.81)"/><path class="f" d="M114.49,47.9A64.57,64.57,0,0,1,58.57,80.19,64.57,64.57,0,0,1,114.49,47.9" transform="translate(-2.29 -1.81)"/><path class="f" d="M170.4,144.76A64.57,64.57,0,0,1,114.49,177a64.57,64.57,0,0,1,55.92-32.29" transform="translate(-2.29 -1.81)"/><path class="g" d="M114.49,1.81q.83.77,1.6,1.6a31.48,31.48,0,0,1-1.6,44.49q-.83-.77-1.6-1.6a31.48,31.48,0,0,1,1.6-44.49" transform="translate(-2.29 -1.81)"/><path class="f" d="M170.4,80.19a64.57,64.57,0,0,1,0,64.57,64.57,64.57,0,0,1,0-64.57" transform="translate(-2.29 -1.81)"/><path class="f" d="M58.57,80.19a64.57,64.57,0,0,1,0,64.57,64.57,64.57,0,0,1,0-64.57" transform="translate(-2.29 -1.81)"/><path class="h" d="M170.4,209.33A64.57,64.57,0,0,1,114.49,177a64.57,64.57,0,0,1,55.92,32.29" transform="translate(-2.29 -1.81)"/><path class="h" d="M58.57,144.76A64.57,64.57,0,0,1,2.65,112.47a64.57,64.57,0,0,1,55.92,32.29" transform="translate(-2.29 -1.81)"/><path class="h" d="M226.32,112.47A64.57,64.57,0,0,1,170.4,80.19a64.57,64.57,0,0,1,55.92,32.29" transform="translate(-2.29 -1.81)"/><path class="h" d="M114.49,47.9A64.57,64.57,0,0,1,58.57,15.62,64.57,64.57,0,0,1,114.49,47.9" transform="translate(-2.29 -1.81)"/><path class="h" d="M170.4,15.62A64.57,64.57,0,0,1,114.49,47.9,64.57,64.57,0,0,1,170.4,15.62" transform="translate(-2.29 -1.81)"/><path class="h" d="M58.57,80.19A64.57,64.57,0,0,1,2.65,112.47,64.57,64.57,0,0,1,58.57,80.19" transform="translate(-2.29 -1.81)"/><path class="h" d="M114.49,177a64.57,64.57,0,0,1-55.92,32.29A64.57,64.57,0,0,1,114.49,177" transform="translate(-2.29 -1.81)"/><path class="h" d="M226.32,112.47a64.57,64.57,0,0,1-55.92,32.29,64.57,64.57,0,0,1,55.92-32.29" transform="translate(-2.29 -1.81)"/><path class="h" d="M58.57,144.76a64.57,64.57,0,0,1,0,64.57,64.57,64.57,0,0,1,0-64.57" transform="translate(-2.29 -1.81)"/><path class="h" d="M170.4,144.76a64.57,64.57,0,0,1,0,64.57,64.57,64.57,0,0,1,0-64.57" transform="translate(-2.29 -1.81)"/><path class="h" d="M58.57,15.62a64.57,64.57,0,0,1,0,64.57,64.57,64.57,0,0,1,0-64.57" transform="translate(-2.29 -1.81)"/><path class="h" d="M170.4,15.62a64.57,64.57,0,0,1,0,64.57,64.57,64.57,0,0,1,0-64.57" transform="translate(-2.29 -1.81)"/></svg>